<?xml version="1.0" encoding="UTF-8"?>
<!DOCTYPE svg PUBLIC "-//W3C//DTD SVG 1.1//EN" "http://www.w3.org/Graphics/SVG/1.1/DTD/svg11.dtd">
<svg xmlns="http://www.w3.org/2000/svg" version="1.1" width="32px" height="32px" style="shape-rendering:geometricPrecision; text-rendering:geometricPrecision; image-rendering:optimizeQuality; fill-rule:evenodd; clip-rule:evenodd" xmlns:xlink="http://www.w3.org/1999/xlink">
<g><path style="opacity:1" fill="#050507" d="M -0.5,-0.5 C 10.1667,-0.5 20.8333,-0.5 31.5,-0.5C 31.5,10.1667 31.5,20.8333 31.5,31.5C 20.8333,31.5 10.1667,31.5 -0.5,31.5C -0.5,20.8333 -0.5,10.1667 -0.5,-0.5 Z"/></g>
<g><path style="opacity:1" fill="#3dc4f8" d="M 22.5,13.5 C 21.5,13.5 20.5,13.5 19.5,13.5C 19.5,11.8333 19.5,10.1667 19.5,8.5C 20.5,8.5 21.5,8.5 22.5,8.5C 22.5,10.1667 22.5,11.8333 22.5,13.5 Z"/></g>
<g><path style="opacity:1" fill="#d7498e" d="M 13.5,17.5 C 13.2525,19.8583 13.9192,21.8583 15.5,23.5C 13.0072,23.6709 11.1739,22.6709 10,20.5C 9.50115,16.5138 9.33449,12.5138 9.5,8.5C 10.8333,8.5 12.1667,8.5 13.5,8.5C 13.5,11.5 13.5,14.5 13.5,17.5 Z"/></g>
<g><path style="opacity:1" fill="#2068ce" d="M 19.5,13.5 C 20.5,13.5 21.5,13.5 22.5,13.5C 22.5,15.1667 22.5,16.8333 22.5,18.5C 20.3888,19.7416 18.3888,19.7416 16.5,18.5C 18.7271,17.5994 19.7271,15.9328 19.5,13.5 Z"/></g>
<g><path style="opacity:1" fill="#de8622" d="M 13.5,17.5 C 14.391,18.1098 15.391,18.4431 16.5,18.5C 18.3888,19.7416 20.3888,19.7416 22.5,18.5C 22.1847,22.8004 19.8514,24.467 15.5,23.5C 13.9192,21.8583 13.2525,19.8583 13.5,17.5 Z"/></g>
</svg>
